<?xml version="1.0" encoding="UTF-8"?>
<svg id="Layer_1" data-name="Layer 1" xmlns="http://www.w3.org/2000/svg" viewBox="61.1 184 303 45.3">
  <defs>
    <style>
      .cls-1 {
        fill: #fff;
      }
    </style>
  </defs>
  <g>
    <path class="cls-1" d="M156.93,228.07v-5.32h-.05l-2.54,4.26h-.19l-2.54-4.26h-.05v5.32h-.89v-7.01h.99l2.62,4.42h.02l2.62-4.42h.95v7.01h-.93Z"/>
    <path class="cls-1" d="M159.52,228.07l3.25-7.01h.88l3.25,7.01h-1.02l-.96-2.11h-3.5l-.95,2.11h-.97ZM161.77,225.21h2.84l-1.39-3.06h-.06l-1.39,3.06Z"/>
    <path class="cls-1" d="M168.56,228.07v-7.01h.93v7.01h-.93Z"/>
    <path class="cls-1" d="M177.09,222.54c-.42-.38-1.31-.87-2.6-.87-.9,0-1.83.32-1.83,1.2s1.16.95,2.3,1.01c1.22.09,3.2.2,3.2,2.08,0,1.63-1.45,2.29-3.14,2.29-1.78,0-2.92-.74-3.68-1.44l.57-.64c.59.55,1.57,1.29,3.14,1.29,1.19,0,2.18-.43,2.18-1.38,0-1.05-1.07-1.21-2.27-1.3-1.51-.1-3.23-.2-3.23-1.83s1.54-2.08,2.79-2.08c1.45,0,2.59.58,3.13,1.02l-.56.64Z"/>
    <path class="cls-1" d="M183.33,220.88c2.17,0,3.91,1.64,3.91,3.67s-1.74,3.71-3.91,3.71-3.89-1.64-3.89-3.71,1.71-3.67,3.89-3.67ZM183.33,227.43c1.64,0,2.93-1.29,2.93-2.88s-1.29-2.85-2.93-2.85-2.91,1.28-2.91,2.85,1.27,2.88,2.91,2.88Z"/>
    <path class="cls-1" d="M195.46,221.06v7.01h-.85l-4.46-5.38h-.01v5.38h-.93v-7.01h.85l4.46,5.38h.01v-5.38h.93Z"/>
    <path class="cls-1" d="M200.48,228.07v-7.01h3.12c1.31,0,2.04.38,2.67.98.62.63.98,1.53.98,2.52s-.38,1.96-1.03,2.59c-.64.58-1.31.92-2.62.92h-3.12ZM203.57,227.25c1.01,0,1.43-.26,1.92-.68.49-.49.78-1.21.78-2.01s-.27-1.47-.75-1.97c-.48-.44-.96-.71-1.96-.71h-2.15v5.36h2.15Z"/>
    <path class="cls-1" d="M213.04,224.8h-2.84v2.45h4.95v.83h-5.89v-7.01h5.64v.83h-4.71v2.08h2.84v.83Z"/>
    <path class="cls-1" d="M225.98,226.86c-.76.75-1.92,1.4-3.36,1.4-2.27,0-3.86-1.65-3.86-3.7s1.59-3.68,3.81-3.68c1.26,0,2.44.48,3.21,1.2l-.63.62c-.64-.61-1.63-1-2.56-1-1.68,0-2.86,1.3-2.86,2.87s1.19,2.86,2.89,2.86c1.12,0,2.08-.52,2.73-1.18l.62.61Z"/>
    <path class="cls-1" d="M231.03,220.88c2.17,0,3.91,1.64,3.91,3.67s-1.74,3.71-3.91,3.71-3.89-1.64-3.89-3.71,1.71-3.67,3.89-3.67ZM231.03,227.43c1.64,0,2.93-1.29,2.93-2.88s-1.29-2.85-2.93-2.85-2.91,1.28-2.91,2.85,1.27,2.88,2.91,2.88Z"/>
    <path class="cls-1" d="M242.94,221.06v4.52c0,1.71-1.32,2.67-3.09,2.67s-3.07-.97-3.07-2.67v-4.52h.92v4.52c0,1.19.95,1.85,2.15,1.85s2.16-.66,2.16-1.85v-4.52h.93Z"/>
    <path class="cls-1" d="M244.43,221.06h6.38v.83h-2.72v6.19h-.93v-6.19h-2.73v-.83Z"/>
    <path class="cls-1" d="M258.48,221.06v4.52c0,1.71-1.32,2.67-3.09,2.67s-3.07-.97-3.07-2.67v-4.52h.92v4.52c0,1.19.95,1.85,2.15,1.85s2.16-.66,2.16-1.85v-4.52h.93Z"/>
    <path class="cls-1" d="M260.94,228.07v-7.01h3.87c.9,0,1.53.25,1.97.71.34.37.54.84.54,1.38,0,.95-.64,1.69-1.63,1.96l1.73,2.98h-1.06l-1.61-2.86h-2.86v2.86h-.93ZM261.88,221.88v2.5h3.17c.77,0,1.34-.57,1.34-1.26,0-.31-.13-.6-.33-.82-.34-.34-.76-.43-1.25-.43h-2.93Z"/>
    <path class="cls-1" d="M273.19,224.8h-2.84v2.45h4.95v.83h-5.89v-7.01h5.64v.83h-4.71v2.08h2.84v.83Z"/>
  </g>
  <g>
    <path class="cls-1" d="M66.23,201.68h12.6c.69-.05.87-.22,1.08-.85h.45v4.07h-.45c-.18-.63-.42-.79-1.08-.85h-16.71v-.44c.69-.19.87-.35.93-.96v-15.42c-.06-.6-.24-.76-.93-.96v-.44h16.14c.66-.05.87-.22,1.05-.85h.48v4.07h-.48c-.18-.63-.39-.82-1.05-.85h-12.02v5.27h7.91c.66-.05.87-.22,1.05-.85h.48v4.07h-.48c-.18-.63-.39-.79-1.05-.85h-7.91v5.81Z"/>
    <path class="cls-1" d="M102.69,201.68c.66-.05.87-.22,1.08-.85h.45v4.07h-.45c-.18-.63-.42-.79-1.08-.85h-16.11v-.44c.69-.16.87-.35.93-.96v-15.42c-.06-.6-.24-.79-.93-.96v-.44h5.05v.44c-.69.16-.9.35-.93.96v14.44h11.99Z"/>
    <path class="cls-1" d="M114.72,185.84v.44c-.69.16-.87.35-.93.96v15.42c.06.6.24.79.93.96v.44h-5.05v-.44c.69-.16.87-.35.93-.96v-15.42c-.06-.6-.24-.79-.93-.96v-.44h5.05Z"/>
    <path class="cls-1" d="M125.88,195.73v6.93c.03.6.24.79.93.96v.44h-5.05v-.44c.69-.16.87-.35.93-.96v-15.42c-.06-.6-.24-.76-.93-.96v-.44h5.05v.44c-.69.16-.9.35-.93.96v6.11h13.2v-6.11c-.06-.6-.24-.79-.93-.96v-.44h5.05v.44c-.69.16-.87.35-.93.96v15.42c.06.6.24.79.93.96v.44h-5.05v-.44c.69-.16.87-.35.93-.96v-6.93h-13.2Z"/>
    <path class="cls-1" d="M154.83,199.33l-1.47,3.08q-.27.52-.27.68c0,.3.24.44.87.52v.44h-5.2v-.44c.78-.11,1.02-.33,1.74-1.72l7.12-14.39c.21-.41.27-.57.27-.71,0-.27-.18-.41-.72-.52v-.44h5.86v.44c-.54.14-.72.27-.72.55q0,.16.27.68l7.21,13.87c.99,1.99,1.02,2.02,2.1,2.24v.44h-5.59v-.44c.57-.05.87-.25.87-.57,0-.16-.09-.38-.33-.82l-1.5-2.89h-10.52ZM159.97,188.82l-3.97,8.13h8.15l-4.18-8.13Z"/>
    <path class="cls-1" d="M189.7,188.19c.27-.55.39-.96.39-1.23,0-.35-.24-.57-.84-.68v-.44h5.32v.44c-.93.25-1.08.44-1.92,2.27l-6.22,13.24c-.27.57-.39.87-.39,1.12,0,.38.27.6.84.71v.44h-6.43v-.44c.57-.11.84-.33.84-.74,0-.19-.12-.52-.39-1.09l-6.43-13.65c-.6-1.39-.84-1.64-1.71-1.86l.06-.44h5.5v.44c-.57.11-.84.33-.84.66,0,.22.21.96.33,1.26l6.04,12.8,5.86-12.8Z"/>
    <path class="cls-1" d="M226.5,190.81l-.39-.22c.03-.22.03-.3.03-.41,0-.46-.3-.76-1.26-1.2-1.44-.66-3.16-1.01-5.05-1.01-3.7,0-6.25,1.26-6.25,3.06,0,.63.33,1.12.99,1.42.6.27.81.33,4.24.66l2.58.25c2.58.25,4.09.55,5.44,1.15,1.74.79,2.79,2.35,2.79,4.2s-1.02,3.44-2.74,4.37c-1.62.9-3.73,1.31-6.7,1.31-3.22,0-5.77-.6-8.51-1.97-.78-.38-1.08-.52-1.29-.52-.18,0-.33.08-.78.35l-.39-.22,2.74-3.85.39.25-.03.19c-.03.16-.06.3-.06.38,0,.33.33.71.96,1.12,1.92,1.23,4.03,1.8,6.64,1.8,4.09,0,6.67-1.2,6.67-3.14,0-.79-.48-1.45-1.44-1.88-.81-.35-1.68-.52-4.57-.76l-2.59-.25c-2.71-.25-4.12-.55-5.26-1.15-1.32-.66-2.1-1.99-2.1-3.49,0-3.49,3.49-5.73,8.96-5.73,2.34,0,4.15.33,6.43,1.15.78.3,1.32.44,1.59.44.3,0,.42-.05.75-.38l.42.19-2.22,3.9Z"/>
    <path class="cls-1" d="M239.43,199.33l-1.47,3.08q-.27.52-.27.68c0,.3.24.44.87.52v.44h-5.2v-.44c.78-.11,1.02-.33,1.74-1.72l7.12-14.39c.21-.41.27-.57.27-.71,0-.27-.18-.41-.72-.52v-.44h5.86v.44c-.54.14-.72.27-.72.55q0,.16.27.68l7.21,13.87c.99,1.99,1.02,2.02,2.1,2.24v.44h-5.59v-.44c.57-.05.87-.25.87-.57,0-.16-.09-.38-.33-.82l-1.5-2.89h-10.52ZM244.57,188.82l-3.97,8.13h8.15l-4.18-8.13Z"/>
    <path class="cls-1" d="M278.09,190.81l-.39-.22c.03-.22.03-.3.03-.41,0-.46-.3-.76-1.26-1.2-1.44-.66-3.16-1.01-5.05-1.01-3.7,0-6.25,1.26-6.25,3.06,0,.63.33,1.12.99,1.42.6.27.81.33,4.24.66l2.58.25c2.58.25,4.09.55,5.44,1.15,1.74.79,2.79,2.35,2.79,4.2s-1.02,3.44-2.74,4.37c-1.62.9-3.73,1.31-6.7,1.31-3.22,0-5.77-.6-8.51-1.97-.78-.38-1.08-.52-1.29-.52-.18,0-.33.08-.78.35l-.39-.22,2.74-3.85.39.25-.03.19c-.03.16-.06.3-.06.38,0,.33.33.71.96,1.12,1.92,1.23,4.03,1.8,6.64,1.8,4.09,0,6.67-1.2,6.67-3.14,0-.79-.48-1.45-1.44-1.88-.81-.35-1.68-.52-4.57-.76l-2.59-.25c-2.71-.25-4.12-.55-5.26-1.15-1.32-.66-2.1-1.99-2.1-3.49,0-3.49,3.49-5.73,8.96-5.73,2.34,0,4.15.33,6.43,1.15.78.3,1.32.44,1.59.44.3,0,.42-.05.75-.38l.42.19-2.22,3.9Z"/>
    <path class="cls-1" d="M303.53,190.81l-.39-.22c.03-.22.03-.3.03-.41,0-.46-.3-.76-1.26-1.2-1.44-.66-3.16-1.01-5.05-1.01-3.7,0-6.25,1.26-6.25,3.06,0,.63.33,1.12.99,1.42.6.27.81.33,4.24.66l2.58.25c2.58.25,4.09.55,5.44,1.15,1.74.79,2.79,2.35,2.79,4.2s-1.02,3.44-2.74,4.37c-1.62.9-3.73,1.31-6.7,1.31-3.22,0-5.77-.6-8.51-1.97-.78-.38-1.08-.52-1.29-.52-.18,0-.33.08-.78.35l-.39-.22,2.74-3.85.39.25-.03.19c-.03.16-.06.3-.06.38,0,.33.33.71.96,1.12,1.92,1.23,4.03,1.8,6.64,1.8,4.09,0,6.67-1.2,6.67-3.14,0-.79-.48-1.45-1.44-1.88-.81-.35-1.68-.52-4.57-.76l-2.59-.25c-2.71-.25-4.12-.55-5.26-1.15-1.32-.66-2.1-1.99-2.1-3.49,0-3.49,3.49-5.73,8.96-5.73,2.34,0,4.15.33,6.43,1.15.78.3,1.32.44,1.59.44.3,0,.42-.05.75-.38l.42.19-2.22,3.9Z"/>
    <path class="cls-1" d="M331,187.59c2.5,1.75,3.91,4.5,3.91,7.48,0,2.73-1.5,5.54-3.91,7.23-1.95,1.39-4.39,2.07-7.42,2.07s-5.47-.68-7.42-2.07c-2.43-1.75-3.91-4.5-3.91-7.37s1.5-5.65,3.91-7.34c1.98-1.39,4.42-2.07,7.4-2.07s5.47.65,7.45,2.07ZM315.55,194.96c0,4.18,3.19,6.96,8.03,6.96,2.56,0,4.54-.68,6.01-2.1,1.29-1.26,2.01-2.95,2.01-4.78,0-4.31-3.16-7.07-8.06-7.07s-8,2.78-8,6.99Z"/>
    <path class="cls-1" d="M345.23,202.66c.06.6.24.79.93.96v.44h-4.69v-.44c.69-.19.87-.35.93-.96v-15.42c-.06-.6-.24-.79-.93-.96v-.44h6.7v.44c-.45.14-.66.33-.66.6,0,.22.15.46.66.98l11.15,11.49v-12.12c-.06-.6-.24-.79-.93-.96v-.44h4.69v.44c-.69.16-.9.35-.93.96v15.42c.03.6.24.79.93.96v.44h-5.35v-.44c.45-.11.69-.3.69-.55,0-.22-.18-.46-.63-.96l-12.57-12.91v13.46Z"/>
  </g>
</svg>