<?xml version="1.0" encoding="UTF-8"?>
<svg id="Layer_1" data-name="Layer 1" xmlns="http://www.w3.org/2000/svg" viewBox="68.9 201.1 287.4 20.9">
  <defs>
    <style>
      .cls-1 {
        fill: #fff;
      }
    </style>
  </defs>
  <path class="cls-1" d="M73.79,217.9h11.95c.66-.05.83-.21,1.03-.8h.43v3.86h-.43c-.17-.6-.4-.75-1.03-.8h-15.86v-.41c.66-.18.83-.34.88-.91v-14.63c-.06-.57-.23-.73-.88-.91v-.41h15.31c.63-.05.83-.21,1-.8h.46v3.86h-.46c-.17-.6-.37-.78-1-.8h-11.41v5h7.5c.63-.05.83-.21,1-.8h.46v3.86h-.46c-.17-.6-.37-.75-1-.8h-7.5v5.52Z"/>
  <path class="cls-1" d="M108.38,217.9c.63-.05.83-.21,1.03-.8h.43v3.86h-.43c-.17-.6-.4-.75-1.03-.8h-15.29v-.41c.66-.16.83-.34.88-.91v-14.63c-.06-.57-.23-.75-.88-.91v-.41h4.79v.41c-.66.16-.86.34-.88.91v13.7h11.38Z"/>
  <path class="cls-1" d="M119.78,202.88v.41c-.66.16-.83.34-.88.91v14.63c.06.57.23.75.88.91v.41h-4.79v-.41c.66-.16.83-.34.88-.91v-14.63c-.06-.57-.23-.75-.88-.91v-.41h4.79Z"/>
  <path class="cls-1" d="M130.36,212.25v6.58c.03.57.23.75.88.91v.41h-4.79v-.41c.66-.16.83-.34.88-.91v-14.63c-.06-.57-.23-.73-.88-.91v-.41h4.79v.41c-.66.16-.86.34-.88.91v5.8h12.52v-5.8c-.06-.57-.23-.75-.88-.91v-.41h4.79v.41c-.66.16-.83.34-.88.91v14.63c.06.57.23.75.88.91v.41h-4.79v-.41c.66-.16.83-.34.88-.91v-6.58h-12.52Z"/>
  <path class="cls-1" d="M157.81,215.67l-1.4,2.93q-.26.49-.26.65c0,.28.23.41.83.49v.41h-4.93v-.41c.74-.1.97-.31,1.65-1.63l6.76-13.65c.2-.39.26-.54.26-.67,0-.26-.17-.39-.68-.49v-.41h5.56v.41c-.51.13-.68.26-.68.52q0,.16.26.65l6.84,13.15c.94,1.89.97,1.92,2,2.12v.41h-5.3v-.41c.54-.05.83-.23.83-.54,0-.16-.08-.36-.31-.78l-1.43-2.74h-9.98ZM162.69,205.7l-3.76,7.72h7.73l-3.96-7.72Z"/>
  <path class="cls-1" d="M190.89,205.11c.26-.52.37-.91.37-1.17,0-.34-.23-.54-.8-.65v-.41h5.05v.41c-.88.23-1.03.41-1.83,2.15l-5.9,12.56c-.26.54-.37.83-.37,1.06,0,.36.26.57.8.67v.41h-6.1v-.41c.54-.1.8-.31.8-.7,0-.18-.11-.49-.37-1.04l-6.1-12.95c-.57-1.32-.8-1.55-1.62-1.76l.06-.41h5.22v.41c-.54.1-.8.31-.8.62,0,.21.2.91.31,1.19l5.73,12.14,5.56-12.14Z"/>
  <path class="cls-1" d="M225.79,207.59l-.37-.21c.03-.21.03-.29.03-.39,0-.44-.29-.73-1.2-1.14-1.37-.62-3-.96-4.79-.96-3.51,0-5.93,1.19-5.93,2.9,0,.6.31,1.06.94,1.35.57.26.77.31,4.02.62l2.45.23c2.45.23,3.88.52,5.16,1.09,1.65.75,2.65,2.23,2.65,3.99s-.97,3.26-2.6,4.14c-1.54.85-3.54,1.24-6.36,1.24-3.05,0-5.48-.57-8.07-1.86-.74-.36-1.03-.49-1.23-.49-.17,0-.31.08-.74.34l-.37-.21,2.59-3.65.37.23-.03.18c-.03.16-.06.28-.06.36,0,.31.31.67.91,1.06,1.83,1.17,3.82,1.71,6.3,1.71,3.88,0,6.33-1.14,6.33-2.98,0-.75-.46-1.37-1.37-1.79-.77-.34-1.6-.49-4.33-.73l-2.45-.23c-2.57-.23-3.91-.52-4.99-1.09-1.25-.62-2-1.89-2-3.31,0-3.31,3.31-5.44,8.5-5.44,2.22,0,3.94.31,6.1,1.09.74.28,1.25.41,1.51.41.29,0,.4-.05.71-.36l.4.18-2.11,3.7Z"/>
  <path class="cls-1" d="M238.05,215.67l-1.4,2.93q-.26.49-.26.65c0,.28.23.41.83.49v.41h-4.93v-.41c.74-.1.97-.31,1.65-1.63l6.76-13.65c.2-.39.26-.54.26-.67,0-.26-.17-.39-.68-.49v-.41h5.56v.41c-.51.13-.68.26-.68.52q0,.16.26.65l6.84,13.15c.94,1.89.97,1.92,2,2.12v.41h-5.3v-.41c.54-.05.83-.23.83-.54,0-.16-.08-.36-.31-.78l-1.43-2.74h-9.98ZM242.92,205.7l-3.76,7.72h7.73l-3.96-7.72Z"/>
  <path class="cls-1" d="M274.72,207.59l-.37-.21c.03-.21.03-.29.03-.39,0-.44-.29-.73-1.2-1.14-1.37-.62-3-.96-4.79-.96-3.51,0-5.93,1.19-5.93,2.9,0,.6.31,1.06.94,1.35.57.26.77.31,4.02.62l2.45.23c2.45.23,3.88.52,5.16,1.09,1.65.75,2.65,2.23,2.65,3.99s-.97,3.26-2.6,4.14c-1.54.85-3.54,1.24-6.36,1.24-3.05,0-5.48-.57-8.07-1.86-.74-.36-1.03-.49-1.23-.49-.17,0-.31.08-.74.34l-.37-.21,2.59-3.65.37.23-.03.18c-.03.16-.06.28-.06.36,0,.31.31.67.91,1.06,1.83,1.17,3.82,1.71,6.3,1.71,3.88,0,6.33-1.14,6.33-2.98,0-.75-.46-1.37-1.37-1.79-.77-.34-1.6-.49-4.33-.73l-2.45-.23c-2.57-.23-3.91-.52-4.99-1.09-1.25-.62-2-1.89-2-3.31,0-3.31,3.31-5.44,8.5-5.44,2.22,0,3.94.31,6.1,1.09.74.28,1.25.41,1.51.41.29,0,.4-.05.71-.36l.4.18-2.11,3.7Z"/>
  <path class="cls-1" d="M298.84,207.59l-.37-.21c.03-.21.03-.29.03-.39,0-.44-.29-.73-1.2-1.14-1.37-.62-3-.96-4.79-.96-3.51,0-5.93,1.19-5.93,2.9,0,.6.31,1.06.94,1.35.57.26.77.31,4.02.62l2.45.23c2.45.23,3.88.52,5.16,1.09,1.65.75,2.65,2.23,2.65,3.99s-.97,3.26-2.6,4.14c-1.54.85-3.54,1.24-6.36,1.24-3.05,0-5.48-.57-8.07-1.86-.74-.36-1.03-.49-1.23-.49-.17,0-.31.08-.74.34l-.37-.21,2.59-3.65.37.23-.03.18c-.03.16-.06.28-.06.36,0,.31.31.67.91,1.06,1.83,1.17,3.82,1.71,6.3,1.71,3.88,0,6.33-1.14,6.33-2.98,0-.75-.46-1.37-1.37-1.79-.77-.34-1.6-.49-4.33-.73l-2.45-.23c-2.57-.23-3.91-.52-4.99-1.09-1.25-.62-2-1.89-2-3.31,0-3.31,3.31-5.44,8.5-5.44,2.22,0,3.94.31,6.1,1.09.74.28,1.25.41,1.51.41.29,0,.4-.05.71-.36l.4.18-2.11,3.7Z"/>
  <path class="cls-1" d="M324.9,204.54c2.37,1.66,3.71,4.27,3.71,7.1,0,2.59-1.43,5.26-3.71,6.86-1.85,1.32-4.16,1.97-7.04,1.97s-5.19-.65-7.04-1.97c-2.31-1.66-3.71-4.27-3.71-6.99s1.43-5.36,3.71-6.97c1.88-1.32,4.19-1.97,7.02-1.97s5.19.62,7.07,1.97ZM310.24,211.53c0,3.96,3.02,6.6,7.61,6.6,2.42,0,4.31-.65,5.7-1.99,1.23-1.19,1.91-2.8,1.91-4.53,0-4.09-2.99-6.71-7.64-6.71s-7.59,2.64-7.59,6.63Z"/>
  <path class="cls-1" d="M338.38,218.83c.06.57.23.75.88.91v.41h-4.45v-.41c.66-.18.83-.34.88-.91v-14.63c-.06-.57-.23-.75-.88-.91v-.41h6.36v.41c-.43.13-.63.31-.63.57,0,.21.14.44.63.93l10.58,10.9v-11.5c-.06-.57-.23-.75-.88-.91v-.41h4.45v.41c-.66.16-.86.34-.88.91v14.63c.03.57.23.75.88.91v.41h-5.08v-.41c.43-.1.66-.29.66-.52,0-.21-.17-.44-.6-.91l-11.92-12.25v12.77Z"/>
</svg>