<?xml version="1.0" encoding="UTF-8"?>
<svg id="Layer_1" data-name="Layer 1" xmlns="http://www.w3.org/2000/svg" viewBox="154.7 180.1 115.8 65">
  <defs>
    <style>
      .cls-1 {
        fill: #fff;
      }
    </style>
  </defs>
  <path class="cls-1" d="M224.76,233.91h39.88c2.19-.17,2.76-.69,3.42-2.68h1.43v12.88h-1.43c-.57-1.99-1.33-2.51-3.42-2.68h-52.93v-1.38c2.2-.61,2.76-1.12,2.95-3.03v-48.86c-.19-1.9-.76-2.42-2.95-3.03v-1.38h51.12c2.09-.17,2.76-.69,3.33-2.68h1.52v12.89h-1.52c-.57-1.99-1.24-2.6-3.33-2.68h-38.08v16.69h25.03c2.1-.17,2.76-.69,3.33-2.68h1.52v12.89h-1.52c-.57-1.99-1.24-2.51-3.33-2.68h-25.03v18.42Z"/>
  <path class="cls-1" d="M200.44,233.91h-39.88c-2.19-.17-2.76-.69-3.42-2.68h-1.43v12.88h1.43c.57-1.99,1.33-2.51,3.42-2.68h52.93v-1.38c-2.2-.61-2.76-1.12-2.95-3.03v-48.86c.19-1.9.76-2.42,2.95-3.03v-1.38h-51.12c-2.09-.17-2.76-.69-3.33-2.68h-1.52v12.89h1.52c.57-1.99,1.24-2.6,3.33-2.68h38.08v16.69h-25.03c-2.1-.17-2.76-.69-3.33-2.68h-1.52v12.89h1.52c.57-1.99,1.24-2.51,3.33-2.68h25.03v18.42Z"/>
</svg>